# Blender 3.6.1
# www.blender.org
mtllib prop_desklamp_obj.mtl
o prop_desklamp_obj
v 0.025237 0.073116 0.014794
v -0.020812 0.105360 0.014794
v 0.226581 0.458673 0.014794
v 0.272630 0.426429 0.014794
v -0.020812 0.105360 0.014794
v -0.020812 0.105360 -0.017206
v 0.226581 0.458673 -0.017206
v 0.226581 0.458673 0.014794
v -0.020812 0.105360 -0.017206
v 0.025237 0.073116 -0.017206
v 0.272630 0.426429 -0.017206
v 0.226581 0.458673 -0.017206
v 0.025237 0.073116 -0.017206
v 0.025237 0.073116 0.014794
v 0.272630 0.426429 0.014794
v 0.272630 0.426429 -0.017206
v -0.196048 0.558256 0.148703
v -0.239411 0.465264 0.178685
v -0.380604 0.531104 0.088739
v -0.313709 0.613122 0.073748
v -0.313709 0.613122 0.073748
v -0.380604 0.531104 0.088739
v -0.380604 0.531104 -0.091151
v -0.313709 0.613122 -0.076160
v -0.313709 0.613122 -0.076160
v -0.380604 0.531104 -0.091151
v -0.239411 0.465264 -0.181097
v -0.196048 0.558256 -0.151115
v -0.196048 0.558256 -0.151115
v -0.239411 0.465264 -0.181097
v -0.098217 0.399424 -0.091151
v -0.078386 0.503390 -0.076160
v -0.078386 0.503390 -0.076160
v -0.098217 0.399424 -0.091151
v -0.098217 0.399424 0.088739
v -0.078386 0.503390 0.073748
v -0.078386 0.503390 0.073748
v -0.098217 0.399424 0.088739
v -0.239411 0.465264 0.178685
v -0.196048 0.558256 0.148703
v -0.313709 0.613122 -0.076160
v -0.196048 0.558256 -0.151115
v -0.183651 0.584841 -0.082157
v -0.247188 0.614469 -0.041681
v -0.120114 0.555213 0.039269
v -0.183651 0.584841 0.079745
v -0.126175 0.708099 0.079745
v -0.062638 0.678471 0.039269
v -0.078386 0.503390 0.073748
v -0.196048 0.558256 0.148703
v -0.183651 0.584841 0.079745
v -0.120114 0.555213 0.039269
v -0.196048 0.558256 -0.151115
v -0.078386 0.503390 -0.076160
v -0.120114 0.555213 -0.041681
v -0.183651 0.584841 -0.082157
v -0.313709 0.613122 0.073748
v -0.313709 0.613122 -0.076160
v -0.247188 0.614469 -0.041681
v -0.247188 0.614469 0.039269
v -0.078386 0.503390 -0.076160
v -0.078386 0.503390 0.073748
v -0.120114 0.555213 0.039269
v -0.120114 0.555213 -0.041681
v -0.196048 0.558256 0.148703
v -0.313709 0.613122 0.073748
v -0.247188 0.614469 0.039269
v -0.183651 0.584841 0.079745
v -0.062638 0.678471 -0.041681
v -0.062638 0.678471 0.039269
v -0.084263 0.715036 0.019032
v -0.084263 0.715036 -0.021444
v -0.183651 0.584841 -0.082157
v -0.120114 0.555213 -0.041681
v -0.062638 0.678471 -0.041681
v -0.126175 0.708099 -0.082157
v -0.247188 0.614469 0.039269
v -0.247188 0.614469 -0.041681
v -0.189712 0.737727 -0.041681
v -0.189712 0.737727 0.039269
v -0.120114 0.555213 -0.041681
v -0.120114 0.555213 0.039269
v -0.062638 0.678471 0.039269
v -0.062638 0.678471 -0.041681
v -0.247188 0.614469 -0.041681
v -0.183651 0.584841 -0.082157
v -0.126175 0.708099 -0.082157
v -0.189712 0.737727 -0.041681
v -0.183651 0.584841 0.079745
v -0.247188 0.614469 0.039269
v -0.189712 0.737727 0.039269
v -0.126175 0.708099 0.079745
v -0.147801 0.744664 -0.021444
v -0.116032 0.729850 -0.041681
v -0.084263 0.715036 -0.021444
v -0.147801 0.744664 0.019032
v -0.084263 0.715036 0.019032
v -0.116032 0.729850 0.039269
v -0.189712 0.737727 -0.041681
v -0.126175 0.708099 -0.082157
v -0.116032 0.729850 -0.041681
v -0.147801 0.744664 -0.021444
v -0.126175 0.708099 0.079745
v -0.189712 0.737727 0.039269
v -0.147801 0.744664 0.019032
v -0.116032 0.729850 0.039269
v -0.062638 0.678471 0.039269
v -0.126175 0.708099 0.079745
v -0.116032 0.729850 0.039269
v -0.084263 0.715036 0.019032
v -0.126175 0.708099 -0.082157
v -0.062638 0.678471 -0.041681
v -0.084263 0.715036 -0.021444
v -0.116032 0.729850 -0.041681
v -0.189712 0.737727 0.039269
v -0.189712 0.737727 -0.041681
v -0.147801 0.744664 -0.021444
v -0.147801 0.744664 0.019032
v -0.239411 0.465264 -0.145119
v -0.352365 0.517936 -0.073162
v -0.262668 0.562841 -0.037184
v -0.206190 0.536505 -0.073162
v -0.262668 0.562841 -0.037184
v -0.262668 0.562841 0.034772
v -0.271530 0.499600 0.023979
v -0.271530 0.499600 -0.026391
v -0.352365 0.517936 0.070750
v -0.239411 0.465264 0.142706
v -0.206190 0.536505 0.070750
v -0.262668 0.562841 0.034772
v -0.239411 0.465264 0.142706
v -0.126456 0.412593 0.070750
v -0.149713 0.510169 0.034772
v -0.206190 0.536505 0.070750
v -0.126456 0.412593 -0.073162
v -0.239411 0.465264 -0.145119
v -0.206190 0.536505 -0.073162
v -0.149713 0.510169 -0.037184
v -0.352365 0.517936 -0.073162
v -0.352365 0.517936 0.070750
v -0.262668 0.562841 0.034772
v -0.262668 0.562841 -0.037184
v -0.126456 0.412593 0.070750
v -0.126456 0.412593 -0.073162
v -0.149713 0.510169 -0.037184
v -0.149713 0.510169 0.034772
v -0.192462 0.462730 -0.026391
v -0.231996 0.481165 -0.051575
v -0.271530 0.499600 -0.026391
v -0.192462 0.462730 0.023979
v -0.271530 0.499600 0.023979
v -0.231996 0.481165 0.049163
v -0.149713 0.510169 0.034772
v -0.149713 0.510169 -0.037184
v -0.192462 0.462730 -0.026391
v -0.192462 0.462730 0.023979
v -0.206190 0.536505 -0.073162
v -0.262668 0.562841 -0.037184
v -0.271530 0.499600 -0.026391
v -0.231996 0.481165 -0.051575
v -0.262668 0.562841 0.034772
v -0.206190 0.536505 0.070750
v -0.231996 0.481165 0.049163
v -0.271530 0.499600 0.023979
v -0.206190 0.536505 0.070750
v -0.149713 0.510169 0.034772
v -0.192462 0.462730 0.023979
v -0.231996 0.481165 0.049163
v -0.149713 0.510169 -0.037184
v -0.206190 0.536505 -0.073162
v -0.231996 0.481165 -0.051575
v -0.192462 0.462730 -0.026391
v 0.230565 0.458524 0.014794
v 0.206807 0.407575 0.014794
v -0.184098 0.589857 0.014794
v -0.160340 0.640806 0.014794
v 0.206807 0.407575 0.014794
v 0.206807 0.407575 -0.017206
v -0.184098 0.589857 -0.017206
v -0.184098 0.589857 0.014794
v 0.206807 0.407575 -0.017206
v 0.230565 0.458524 -0.017206
v -0.160340 0.640806 -0.017206
v -0.184098 0.589857 -0.017206
v 0.230565 0.458524 -0.017206
v 0.230565 0.458524 0.014794
v -0.160340 0.640806 0.014794
v -0.160340 0.640806 -0.017206
v 0.260108 0.375316 -0.033206
v 0.288216 0.424000 -0.033206
v 0.260108 0.472684 -0.033206
v 0.203892 0.472684 -0.033206
v 0.203892 0.375316 -0.033206
v 0.175784 0.424000 -0.033206
v 0.260108 0.472684 0.030794
v 0.288216 0.424000 0.030794
v 0.260108 0.375316 0.030794
v 0.203892 0.472684 0.030794
v 0.203892 0.375316 0.030794
v 0.175784 0.424000 0.030794
v 0.203892 0.375316 -0.033206
v 0.203892 0.375316 0.030794
v 0.260108 0.375316 0.030794
v 0.260108 0.375316 -0.033206
v 0.203892 0.472684 -0.033206
v 0.203892 0.472684 0.030794
v 0.175784 0.424000 0.030794
v 0.175784 0.424000 -0.033206
v 0.288216 0.424000 -0.033206
v 0.288216 0.424000 0.030794
v 0.260108 0.472684 0.030794
v 0.260108 0.472684 -0.033206
v 0.260108 0.375316 -0.033206
v 0.260108 0.375316 0.030794
v 0.288216 0.424000 0.030794
v 0.288216 0.424000 -0.033206
v 0.175784 0.424000 -0.033206
v 0.175784 0.424000 0.030794
v 0.203892 0.375316 0.030794
v 0.203892 0.375316 -0.033206
v 0.260108 0.472684 -0.033206
v 0.260108 0.472684 0.030794
v 0.203892 0.472684 0.030794
v 0.203892 0.472684 -0.033206
v 0.028108 0.031316 -0.033206
v 0.056216 0.080000 -0.033206
v 0.028108 0.128684 -0.033206
v -0.028108 0.128684 -0.033206
v -0.028108 0.031316 -0.033206
v -0.056216 0.080000 -0.033206
v 0.028108 0.128684 0.030794
v 0.056216 0.080000 0.030794
v 0.028108 0.031316 0.030794
v -0.028108 0.128684 0.030794
v -0.028108 0.031316 0.030794
v -0.056216 0.080000 0.030794
v -0.028108 0.031316 -0.033206
v -0.028108 0.031316 0.030794
v 0.028108 0.031316 0.030794
v 0.028108 0.031316 -0.033206
v -0.028108 0.128684 -0.033206
v -0.028108 0.128684 0.030794
v -0.056216 0.080000 0.030794
v -0.056216 0.080000 -0.033206
v 0.056216 0.080000 -0.033206
v 0.056216 0.080000 0.030794
v 0.028108 0.128684 0.030794
v 0.028108 0.128684 -0.033206
v 0.028108 0.031316 -0.033206
v 0.028108 0.031316 0.030794
v 0.056216 0.080000 0.030794
v 0.056216 0.080000 -0.033206
v -0.056216 0.080000 -0.033206
v -0.056216 0.080000 0.030794
v -0.028108 0.031316 0.030794
v -0.028108 0.031316 -0.033206
v 0.028108 0.128684 -0.033206
v 0.028108 0.128684 0.030794
v -0.028108 0.128684 0.030794
v -0.028108 0.128684 -0.033206
v -0.000000 0.040000 0.186180
v 0.000000 0.001744 0.186180
v -0.162281 0.001744 0.092487
v -0.162281 0.040000 0.092487
v -0.162281 0.040000 0.092487
v -0.162281 0.001744 0.092487
v -0.162281 0.001743 -0.094899
v -0.162281 0.040000 -0.094899
v -0.162281 0.040000 -0.094899
v -0.162281 0.001743 -0.094899
v 0.000000 0.001743 -0.188592
v 0.000000 0.040000 -0.188592
v 0.000000 0.040000 -0.188592
v 0.000000 0.001743 -0.188592
v 0.162281 0.001743 -0.094899
v 0.162281 0.040000 -0.094899
v 0.162281 0.001743 -0.094899
v 0.000000 0.001743 -0.188592
v -0.162281 0.001743 -0.094899
v -0.162281 0.001744 0.092487
v 0.162281 0.001744 0.092487
v 0.000000 0.001744 0.186180
v 0.162281 0.040000 -0.094899
v 0.162281 0.001743 -0.094899
v 0.162281 0.001744 0.092487
v 0.162281 0.040000 0.092487
v 0.162281 0.040000 0.092487
v 0.162281 0.001744 0.092487
v 0.000000 0.001744 0.186180
v -0.000000 0.040000 0.186180
v -0.162281 0.040000 -0.094899
v 0.000000 0.040000 -0.188592
v 0.000000 0.080000 -0.113638
v -0.097369 0.080000 -0.057422
v -0.097369 0.080000 -0.057422
v 0.000000 0.080000 -0.113638
v 0.097369 0.080000 -0.057422
v -0.097369 0.080000 0.055010
v 0.097369 0.080000 0.055010
v 0.000000 0.080000 0.111226
v 0.162281 0.040000 0.092487
v -0.000000 0.040000 0.186180
v 0.000000 0.080000 0.111226
v 0.097369 0.080000 0.055010
v 0.000000 0.040000 -0.188592
v 0.162281 0.040000 -0.094899
v 0.097369 0.080000 -0.057422
v 0.000000 0.080000 -0.113638
v -0.162281 0.040000 0.092487
v -0.162281 0.040000 -0.094899
v -0.097369 0.080000 -0.057422
v -0.097369 0.080000 0.055010
v 0.162281 0.040000 -0.094899
v 0.162281 0.040000 0.092487
v 0.097369 0.080000 0.055010
v 0.097369 0.080000 -0.057422
v -0.000000 0.040000 0.186180
v -0.162281 0.040000 0.092487
v -0.097369 0.080000 0.055010
v 0.000000 0.080000 0.111226
v -0.380604 0.531104 0.088739
v -0.239411 0.465264 0.142706
v -0.352365 0.517936 0.070750
v -0.239411 0.465264 0.178685
v -0.380604 0.531104 -0.091151
v -0.126456 0.412593 0.070750
v -0.352365 0.517936 -0.073162
v -0.098217 0.399424 0.088739
v -0.239411 0.465264 -0.181097
v -0.126456 0.412593 -0.073162
v -0.239411 0.465264 -0.145119
v -0.098217 0.399424 -0.091151
vn -0.0000 -0.0000 1.0000
vn -0.8192 0.5736 -0.0000
vn -0.0000 -0.0000 -1.0000
vn 0.8192 -0.5736 -0.0000
vn -0.3356 0.4272 0.8396
vn -0.7749 0.6320 -0.0000
vn -0.3356 0.4272 -0.8396
vn 0.5430 0.0175 -0.8396
vn 0.9823 -0.1874 -0.0000
vn 0.5430 0.0175 0.8396
vn 0.1795 0.9066 -0.3818
vn 0.4532 -0.2113 0.8660
vn 0.5791 0.7203 0.3818
vn 0.5791 0.7203 -0.3818
vn -0.0202 0.9998 -0.0000
vn 0.7789 0.6272 -0.0000
vn 0.1795 0.9066 0.3818
vn 0.8607 0.5091 -0.0000
vn 0.4532 -0.2113 -0.8660
vn -0.9063 0.4226 -0.0000
vn 0.9063 -0.4226 -0.0000
vn -0.4532 0.2113 -0.8660
vn -0.4532 0.2113 0.8660
vn 0.4226 0.9063 -0.0000
vn 0.0927 0.8672 -0.4893
vn 0.0927 0.8672 0.4893
vn 0.6047 0.6284 0.4893
vn 0.6047 0.6284 -0.4893
vn -0.1633 0.9866 -0.0000
vn 0.0926 -0.7286 0.6786
vn -0.9903 0.1388 -0.0000
vn 0.0926 -0.7286 -0.6786
vn -0.6176 -0.3974 -0.6786
vn -0.6176 -0.3974 0.6786
vn 0.4477 -0.8942 -0.0000
vn -0.9728 -0.2319 -0.0000
vn -0.4226 -0.9063 -0.0000
vn 0.7429 -0.6694 -0.0000
vn -0.5570 -0.0633 -0.8281
vn -0.5570 -0.0633 0.8281
vn 0.3096 -0.4674 0.8281
vn 0.3096 -0.4674 -0.8281
vn -0.0000 -1.0000 -0.0000
vn -0.8660 0.5000 -0.0000
vn 0.8660 0.5000 -0.0000
vn 0.8660 -0.5000 -0.0000
vn -0.8660 -0.5000 -0.0000
vn -0.0000 1.0000 -0.0000
vn -0.5000 -0.0000 0.8660
vn -1.0000 -0.0000 -0.0000
vn -0.5000 -0.0000 -0.8660
vn 0.5000 -0.0000 -0.8660
vn 1.0000 -0.0000 -0.0000
vn 0.5000 -0.0000 0.8660
vn -0.2623 0.8513 -0.4543
vn 0.2623 0.8513 0.4543
vn 0.2623 0.8513 -0.4543
vn -0.5246 0.8513 -0.0000
vn 0.5246 0.8513 -0.0000
vn -0.2623 0.8513 0.4543
vt 0.281250 0.843750
vt 0.281250 0.000000
vt 0.187500 0.000000
vt 0.187500 0.843750
vt 0.093750 0.843750
vt 0.093750 0.000000
vt 0.000000 0.000000
vt 0.000000 0.843750
vt 0.375000 0.843750
vt 0.375000 0.000000
vt 0.812500 0.500000
vt 0.593750 0.500000
vt 0.593750 0.625000
vt 0.812500 0.625000
vt 0.593750 0.281250
vt 0.375000 0.281250
vt 0.375000 0.406250
vt 0.593750 0.406250
vt 0.375000 0.500000
vt 0.375000 0.625000
vt 0.562500 0.718750
vt 0.406250 0.718750
vt 0.562500 0.156250
vt 0.562500 0.000000
vt 0.656250 0.000000
vt 0.656250 0.156250
vt 0.781250 0.718750
vt 0.625000 0.718750
vt 0.562500 0.500000
vt 0.406250 0.500000
vt 0.375000 0.218750
vt 0.375000 0.156250
vt 0.468750 0.156250
vt 0.468750 0.218750
vt 0.468750 0.000000
vt 0.968750 0.906250
vt 0.562500 0.218750
vt 0.656250 0.218750
vt 0.906250 1.000000
vt 0.906250 0.843750
vt 0.937500 0.843750
vt 0.937500 1.000000
vt 0.875000 0.625000
vt 0.875000 0.718750
vt 0.906250 0.718750
vt 0.906250 0.625000
vt 0.843750 1.000000
vt 0.843750 0.843750
vt 0.875000 0.843750
vt 0.875000 1.000000
vt 0.937500 0.625000
vt 0.843750 0.625000
vt 0.937500 0.718750
vt 0.843750 0.718750
vt 0.795471 0.478185
vt 0.800785 0.365637
vt 0.881156 0.317371
vt 0.897318 0.526379
vt 0.983003 0.365565
vt 0.977688 0.478113
vt 0.989242 0.377581
vt 0.970062 0.488610
vt 0.884344 0.526576
vt 0.789232 0.466169
vt 0.894130 0.317174
vt 0.808412 0.355140
vt 0.468750 0.718750
vt 0.562500 0.843750
vt 0.468750 0.843750
vt 0.656250 0.718750
vt 0.750000 0.718750
vt 0.750000 0.843750
vt 0.656250 0.843750
vt 0.375000 0.718750
vt 0.787193 0.445822
vt 0.808853 0.354609
vt 0.914507 0.315459
vt 0.863967 0.528291
vt 0.991280 0.397928
vt 0.969621 0.489141
vt 0.988892 0.389392
vt 0.966060 0.499728
vt 0.855430 0.521089
vt 0.789581 0.454358
vt 0.923044 0.322661
vt 0.812414 0.344022
vt 0.281250 0.906250
vt 0.562500 0.906250
vt 0.000000 0.906250
vt 0.968750 0.968750
vt 0.500000 1.000000
vt 0.343750 1.000000
vt 0.906250 0.000000
vt 1.000000 0.156250
vt 0.906250 0.312500
vt 0.750000 0.312500
vt 0.750000 0.000000
vt 0.218750 1.000000
vt 0.062500 1.000000
vt 0.968750 0.843750
s 0
usemtl Material
f 3/1/1 2/2/1 1/3/1
f 4/4/1 3/1/1 1/3/1
f 7/5/2 6/6/2 5/7/2
f 8/8/2 7/5/2 5/7/2
f 11/9/3 10/10/3 9/2/3
f 12/1/3 11/9/3 9/2/3
f 15/4/4 14/3/4 13/6/4
f 16/5/4 15/4/4 13/6/4
f 19/11/5 18/12/5 17/13/5
f 20/14/5 19/11/5 17/13/5
f 23/15/6 22/16/6 21/17/6
f 24/18/6 23/15/6 21/17/6
f 27/12/7 26/19/7 25/20/7
f 28/13/7 27/12/7 25/20/7
f 31/11/8 30/12/8 29/13/8
f 32/14/8 31/11/8 29/13/8
f 35/15/9 34/16/9 33/17/9
f 36/18/9 35/15/9 33/17/9
f 39/12/10 38/19/10 37/20/10
f 40/13/10 39/12/10 37/20/10
f 43/21/11 42/13/11 41/20/11
f 44/22/11 43/21/11 41/20/11
f 47/23/12 46/24/12 45/25/12
f 48/26/12 47/23/12 45/25/12
f 51/21/13 50/13/13 49/20/13
f 52/22/13 51/21/13 49/20/13
f 55/27/14 54/14/14 53/13/14
f 56/28/14 55/27/14 53/13/14
f 59/29/15 58/18/15 57/17/15
f 60/30/15 59/29/15 57/17/15
f 63/29/16 62/18/16 61/17/16
f 64/30/16 63/29/16 61/17/16
f 67/27/17 66/14/17 65/13/17
f 68/28/17 67/27/17 65/13/17
f 71/31/18 70/32/18 69/33/18
f 72/34/18 71/31/18 69/33/18
f 75/33/19 74/35/19 73/24/19
f 76/23/19 75/33/19 73/24/19
f 79/32/20 78/10/20 77/35/20
f 80/33/20 79/32/20 77/35/20
f 83/32/21 82/10/21 81/35/21
f 84/33/21 83/32/21 81/35/21
f 87/23/22 86/24/22 85/25/22
f 88/26/22 87/23/22 85/25/22
f 91/33/23 90/35/23 89/24/23
f 92/23/23 91/33/23 89/24/23
f 95/36/24 94/36/24 93/36/24
f 93/36/24 96/36/24 95/36/24
f 96/36/24 97/36/24 95/36/24
f 96/36/24 98/36/24 97/36/24
f 101/37/25 100/23/25 99/26/25
f 102/38/25 101/37/25 99/26/25
f 105/34/26 104/33/26 103/23/26
f 106/37/26 105/34/26 103/23/26
f 109/37/27 108/23/27 107/26/27
f 110/38/27 109/37/27 107/26/27
f 113/34/28 112/33/28 111/23/28
f 114/37/28 113/34/28 111/23/28
f 117/31/29 116/32/29 115/33/29
f 118/34/29 117/31/29 115/33/29
f 121/39/30 120/40/30 119/41/30
f 122/42/30 121/39/30 119/41/30
f 125/43/31 124/44/31 123/45/31
f 126/46/31 125/43/31 123/45/31
f 129/47/32 128/48/32 127/49/32
f 130/50/32 129/47/32 127/49/32
f 133/50/33 132/49/33 131/48/33
f 134/47/33 133/50/33 131/48/33
f 137/42/34 136/41/34 135/40/34
f 138/39/34 137/42/34 135/40/34
f 141/50/35 140/49/35 139/40/35
f 142/39/35 141/50/35 139/40/35
f 145/39/36 144/40/36 143/49/36
f 146/50/36 145/39/36 143/49/36
f 149/46/37 148/51/37 147/46/37
f 147/46/37 150/43/37 149/46/37
f 150/43/37 151/43/37 149/46/37
f 150/43/37 152/52/37 151/43/37
f 155/46/38 154/45/38 153/44/38
f 156/43/38 155/46/38 153/44/38
f 159/46/39 158/45/39 157/53/39
f 160/51/39 159/46/39 157/53/39
f 163/52/40 162/54/40 161/44/40
f 164/43/40 163/52/40 161/44/40
f 167/43/41 166/44/41 165/54/41
f 168/52/41 167/43/41 165/54/41
f 171/51/42 170/53/42 169/45/42
f 172/46/42 171/51/42 169/45/42
f 175/4/1 174/3/1 173/2/1
f 176/1/1 175/4/1 173/2/1
f 179/5/37 178/6/37 177/3/37
f 180/4/37 179/5/37 177/3/37
f 183/1/3 182/2/3 181/10/3
f 184/9/3 183/1/3 181/10/3
f 187/5/24 186/6/24 185/7/24
f 188/8/24 187/5/24 185/7/24
f 191/55/3 190/56/3 189/57/3
f 189/57/3 192/58/3 191/55/3
f 189/57/3 193/59/3 192/58/3
f 193/59/3 194/60/3 192/58/3
f 197/61/1 196/62/1 195/63/1
f 195/63/1 198/64/1 197/61/1
f 198/64/1 199/65/1 197/61/1
f 198/64/1 200/66/1 199/65/1
f 203/67/43 202/21/43 201/68/43
f 204/69/43 203/67/43 201/68/43
f 207/70/44 206/71/44 205/72/44
f 208/73/44 207/70/44 205/72/44
f 211/54/45 210/53/45 209/41/45
f 212/48/45 211/54/45 209/41/45
f 215/74/46 214/67/46 213/69/46
f 216/9/46 215/74/46 213/69/46
f 219/21/47 218/70/47 217/73/47
f 220/68/47 219/21/47 217/73/47
f 223/71/48 222/54/48 221/48/48
f 224/72/48 223/71/48 221/48/48
f 227/75/3 226/76/3 225/77/3
f 225/77/3 228/78/3 227/75/3
f 225/77/3 229/79/3 228/78/3
f 229/79/3 230/80/3 228/78/3
f 233/81/1 232/82/1 231/83/1
f 231/83/1 234/84/1 233/81/1
f 234/84/1 235/85/1 233/81/1
f 234/84/1 236/86/1 235/85/1
f 239/67/43 238/21/43 237/68/43
f 240/69/43 239/67/43 237/68/43
f 243/70/44 242/71/44 241/72/44
f 244/73/44 243/70/44 241/72/44
f 247/54/45 246/53/45 245/41/45
f 248/48/45 247/54/45 245/41/45
f 251/74/46 250/67/46 249/69/46
f 252/9/46 251/74/46 249/69/46
f 255/21/47 254/70/47 253/73/47
f 256/68/47 255/21/47 253/73/47
f 259/71/48 258/54/48 257/48/48
f 260/72/48 259/71/48 257/48/48
f 263/68/49 262/1/49 261/87/49
f 264/88/49 263/68/49 261/87/49
f 267/1/50 266/8/50 265/89/50
f 268/87/50 267/1/50 265/89/50
f 271/68/51 270/1/51 269/87/51
f 272/88/51 271/68/51 269/87/51
f 275/68/52 274/1/52 273/87/52
f 276/88/52 275/68/52 273/87/52
f 279/90/43 278/90/43 277/90/43
f 277/90/43 280/90/43 279/90/43
f 277/90/43 281/90/43 280/90/43
f 281/90/43 282/90/43 280/90/43
f 285/1/53 284/8/53 283/89/53
f 286/87/53 285/1/53 283/89/53
f 289/68/54 288/1/54 287/87/54
f 290/88/54 289/68/54 287/87/54
f 293/91/55 292/88/55 291/87/55
f 294/92/55 293/91/55 291/87/55
f 297/93/48 296/94/48 295/95/48
f 295/95/48 298/96/48 297/93/48
f 298/96/48 299/97/48 297/93/48
f 298/96/48 300/26/48 299/97/48
f 303/91/56 302/88/56 301/87/56
f 304/92/56 303/91/56 301/87/56
f 307/91/57 306/88/57 305/87/57
f 308/92/57 307/91/57 305/87/57
f 311/98/58 310/87/58 309/89/58
f 312/99/58 311/98/58 309/89/58
f 315/98/59 314/87/59 313/89/59
f 316/99/59 315/98/59 313/89/59
f 319/91/60 318/88/60 317/87/60
f 320/92/60 319/91/60 317/87/60
f 323/100/37 322/100/37 321/100/37
f 322/100/37 324/100/37 321/100/37
f 323/100/37 321/100/37 325/100/37
f 322/100/37 326/100/37 324/100/37
f 327/100/37 323/100/37 325/100/37
f 326/100/37 328/100/37 324/100/37
f 327/100/37 325/100/37 329/100/37
f 326/100/37 330/100/37 328/100/37
f 331/100/37 327/100/37 329/100/37
f 330/100/37 332/100/37 328/100/37
f 331/100/37 329/100/37 332/100/37
f 330/100/37 331/100/37 332/100/37
